<?xml version="1.0" standalone="no"?><!DOCTYPE svg PUBLIC "-//W3C//DTD SVG 1.1//EN" "http://www.w3.org/Graphics/SVG/1.1/DTD/svg11.dtd" ><svg xmlns="http://www.w3.org/2000/svg"><metadata></metadata><defs><font id="fonteditor" horiz-adv-x="1804"><font-face font-family="DINPro-Regular" font-weight="400" font-stretch="normal" units-per-em="2048" panose-1="2 0 5 3 3 0 0 2 0 3" ascent="1565" descent="-483" x-height="3" bbox="-31 -463 1716 1651" underline-thickness="104" underline-position="-226" unicode-range="U+0021-2122" /><missing-glyph horiz-adv-x="1150" d="M184 0 L184 1458 L967 1458 L967 0 L184 0 ZM289 104 L862 104 L862 1354 L289 1354 L289 104 Z" /><glyph glyph-name="exclam" unicode="!" d="M440 1458 L418 410 L291 410 L270 1458 L440 1458 ZM442 0 L266 0 L266 172 L442 172 L442 0 Z" /><glyph glyph-name="quotedbl" unicode="&quot;" d="M686 1110 L524 1110 L524 1458 L686 1458 L686 1110 ZM342 1110 L180 1110 L180 1458 L342 1458 L342 1110 Z" /><glyph glyph-name="dollar" unicode="$" d="M1106 401 Q1106 224 984.5 115 Q863 6 659 -8 L659 -233 L537 -233 L537 -12 Q393 -6 287.5 39 Q182 84 86 180 L193 287 Q273 207 356 170.5 Q439 134 545 129 L545 672 L504 676 Q426 683 355.5 714 Q285 745 238 786 Q125 887 125 1059 Q125 1233 235.5 1343 Q346 1453 537 1468 L537 1651 L659 1651 L659 1468 Q776 1462 865 1424.5 Q954 1387 1040 1311 L940 1210 Q814 1323 653 1333 L653 803 L717 793 Q818 776 876.5 753 Q935 730 981 690 Q1106 584 1106 401 ZM950 397 Q950 518 879 580 Q867 591 853 600 Q839 609 828 615 Q817 621 800 626.5 Q783 632 773.5 635 Q764 638 743.5 641.5 Q723 645 715.5 646.5 Q708 648 684 651 Q660 654 653 655 L653 129 Q792 138 871 208.5 Q950 279 950 397 ZM545 817 L545 1333 Q419 1323 349 1251.5 Q279 1180 279 1065 Q279 953 344 897 Q419 835 545 817 Z" /><glyph glyph-name="percent" unicode="%" d="M1575 262 Q1575 138 1496.5 62 Q1418 -14 1298 -14 Q1177 -14 1099.5 61.5 Q1022 137 1022 262 L1022 477 Q1022 602 1099.5 678 Q1177 754 1298 754 Q1418 754 1496.5 677.5 Q1575 601 1575 477 L1575 262 ZM686 981 Q686 858 608 782.5 Q530 707 410 707 Q289 707 211 782.5 Q133 858 133 981 L133 1196 Q133 1321 211 1397 Q289 1473 410 1473 Q530 1473 608 1396.5 Q686 1320 686 1196 L686 981 ZM1257 1458 L573 0 L451 0 L1135 1458 L1257 1458 ZM1458 266 L1458 473 Q1458 558 1418.5 604.5 Q1379 651 1298 651 Q1139 651 1139 473 L1139 266 Q1139 88 1298 88 Q1379 88 1418.5 134.5 Q1458 181 1458 266 ZM569 985 L569 1192 Q569 1370 410 1370 Q250 1370 250 1192 L250 985 Q250 809 410 809 Q569 809 569 985 Z" /><glyph glyph-name="ampersand" unicode="&amp;" d="M1374 0 L1180 0 L1049 160 Q864 -12 618 -12 Q407 -12 282.5 104 Q158 220 158 412 Q158 465 169.5 512 Q181 559 205 599.5 Q229 640 254.5 671.5 Q280 703 321 737 Q362 771 393 793.5 Q424 816 473 848 Q434 894 416 918 Q398 942 369 987 Q340 1032 327.5 1075 Q315 1118 315 1165 Q315 1296 406.5 1383 Q498 1470 637 1470 Q773 1470 863.5 1382 Q954 1294 954 1163 Q954 1013 793 903 Q719 854 684 829 L1057 381 Q1102 449 1120 521 Q1138 593 1139 715 L1286 715 Q1283 427 1151 268 L1374 0 ZM961 266 L559 750 Q519 723 504.5 712.5 Q490 702 455.5 675.5 Q421 649 407 634 Q393 619 369.5 591 Q346 563 336 539 Q326 515 317.5 483 Q309 451 309 416 Q309 286 394.5 205.5 Q480 125 616 125 Q707 125 790 156 Q873 187 961 266 ZM809 1163 Q809 1237 759.5 1287 Q710 1337 637 1337 Q563 1337 516 1289 Q469 1241 469 1167 Q469 1118 496.5 1069 Q524 1020 600 928 L678 981 Q741 1025 775 1065.5 Q809 1106 809 1163 Z" /><glyph glyph-name="quotesingle" unicode="&#39;" d="M342 1110 L180 1110 L180 1458 L342 1458 L342 1110 Z" /><glyph glyph-name="parenleft" unicode="(" d="M479 -92 L379 -193 Q333 -147 316.5 -130 Q300 -113 274 -80.5 Q248 -48 231 -16 Q188 63 188 195 L188 1264 Q188 1396 231 1475 Q237 1486 243 1496 Q249 1506 257.5 1517.5 Q266 1529 271 1536 Q276 1543 287 1555 Q298 1567 302 1572 Q306 1577 320 1591.5 Q334 1606 337.5 1609.5 Q341 1613 358 1630 Q375 1647 379 1651 L479 1550 Q476 1547 462.5 1533.5 Q449 1520 445.5 1516.5 Q442 1513 431 1501.5 Q420 1490 416 1485 Q412 1480 403.5 1470 Q395 1460 390.5 1453 Q386 1446 380 1436.5 Q374 1427 369 1417 Q336 1349 336 1251 L336 207 Q336 109 369 41 Q374 31 380 21.5 Q386 12 390.5 5 Q395 -2 403.5 -12 Q412 -22 416 -27 Q420 -32 431 -43.5 Q442 -55 445.5 -58.5 Q449 -62 462.5 -75.5 Q476 -89 479 -92 Z" /><glyph glyph-name="parenright" unicode=")" d="M420 195 Q420 59 379 -16 Q362 -48 336 -80.5 Q310 -113 293.5 -130 Q277 -147 231 -193 L127 -88 Q134 -81 153.5 -62 Q173 -43 180.5 -35 Q188 -27 201.5 -12 Q215 3 223.5 16.5 Q232 30 240 45 Q268 102 268 207 L268 1251 Q268 1356 240 1413 Q232 1428 223.5 1441.5 Q215 1455 201.5 1470 Q188 1485 180.5 1493 Q173 1501 153.5 1520 Q134 1539 127 1546 L231 1651 Q235 1647 252 1630 Q269 1613 272.5 1609.5 Q276 1606 290 1591.5 Q304 1577 308 1572 Q312 1567 323 1555 Q334 1543 339 1536 Q344 1529 352.5 1517.5 Q361 1506 367 1496 Q373 1486 379 1475 Q420 1400 420 1264 L420 195 Z" /><glyph glyph-name="asterisk" unicode="*" d="M834 967 L776 866 L537 1012 L545 731 L426 731 L434 1012 L197 866 L137 967 L383 1100 L137 1235 L197 1333 L434 1188 L426 1468 L545 1468 L537 1188 L776 1333 L834 1235 L588 1100 L834 967 Z" /><glyph glyph-name="plus" unicode="+" d="M963 479 L604 479 L604 119 L467 119 L467 479 L106 479 L106 616 L467 616 L467 973 L604 973 L604 616 L963 616 L963 479 Z" /><glyph glyph-name="comma" unicode="," d="M360 -133 L180 -295 L180 180 L360 180 L360 -133 Z" /><glyph glyph-name="hyphen" unicode="-" d="M717 483 L156 483 L156 621 L717 621 L717 483 Z" /><glyph glyph-name="period" unicode="." d="M373 0 L180 0 L180 193 L373 193 L373 0 Z" /><glyph glyph-name="slash" unicode="/" d="M729 1610 L145 -152 L0 -152 L584 1610 L729 1610 Z" /><glyph glyph-name="zero" unicode="0" d="M934 389 Q934 210 821 99 Q708 -12 535 -12 Q362 -12 248.5 99 Q135 210 135 389 L135 1069 Q135 1248 248.5 1359 Q362 1470 535 1470 Q708 1470 821 1359 Q934 1248 934 1069 L934 389 ZM786 397 L786 1061 Q786 1185 719.5 1262 Q653 1339 535 1339 Q416 1339 349.5 1261.5 Q283 1184 283 1061 L283 397 Q283 274 349.5 196.5 Q416 119 535 119 Q653 119 719.5 196 Q786 273 786 397 Z" /><glyph glyph-name="one" unicode="1" d="M676 0 L528 0 L528 1294 L256 1055 L256 1223 L528 1458 L676 1458 L676 0 Z" /><glyph glyph-name="two" unicode="2" d="M944 0 L139 0 L139 131 L715 862 Q797 969 797 1077 Q797 1197 729.5 1268 Q662 1339 543 1339 Q433 1339 361 1273.5 Q289 1208 289 1075 L141 1075 Q141 1249 251.5 1359.5 Q362 1470 543 1470 Q724 1470 834 1363 Q944 1256 944 1077 Q944 993 917 927.5 Q890 862 827 782 L317 131 L944 131 L944 0 Z" /><glyph glyph-name="three" unicode="3" d="M942 397 Q942 203 821 94.5 Q700 -14 514 -14 Q332 -14 213.5 84 Q95 182 86 371 L233 371 Q241 243 320.5 180 Q400 117 514 117 Q636 117 715.5 193 Q795 269 795 399 Q795 535 724.5 608.5 Q654 682 508 682 L477 682 L477 811 L508 811 Q639 811 703.5 880 Q768 949 768 1075 Q768 1201 696 1271 Q624 1341 514 1341 Q400 1341 331.5 1276.5 Q263 1212 252 1098 L104 1098 Q116 1271 230 1372 Q344 1473 514 1473 Q693 1473 804 1364 Q915 1255 915 1077 Q915 842 719 754 Q942 671 942 397 Z" /><glyph glyph-name="four" unicode="4" d="M987 231 L809 231 L809 0 L664 0 L664 231 L82 231 L82 365 L608 1458 L766 1458 L240 365 L664 365 L664 778 L809 778 L809 365 L987 365 L987 231 Z" /><glyph glyph-name="five" unicode="5" d="M946 481 Q946 351 923 258 Q900 165 829 94 Q721 -14 539 -14 Q350 -14 246 90 Q155 185 143 344 L291 344 Q319 117 539 117 Q652 117 719 184 Q754 219 773 274 Q792 329 795.5 372 Q799 415 799 481 Q799 540 794 587 Q789 634 773 682.5 Q757 731 731 763 Q705 795 659.5 815.5 Q614 836 553 836 Q460 836 396.5 797 Q333 758 311 692 L178 692 L178 1458 L915 1458 L915 1327 L311 1327 L311 864 Q402 965 573 965 Q732 965 825 872 Q897 800 921.5 703 Q946 606 946 481 Z" /><glyph glyph-name="six" unicode="6" d="M942 420 Q942 231 832 109.5 Q722 -12 539 -12 Q354 -12 243.5 103 Q133 218 133 408 Q133 549 225 735 L584 1458 L735 1458 L410 803 Q480 834 563 834 Q732 834 837 717.5 Q942 601 942 420 ZM795 414 Q795 541 726.5 625 Q658 709 537 709 Q420 709 350.5 629 Q281 549 281 414 Q281 280 350.5 199.5 Q420 119 537 119 Q654 119 724.5 199.5 Q795 280 795 414 Z" /><glyph glyph-name="seven" unicode="7" d="M965 1327 L459 0 L303 0 L809 1327 L301 1327 L301 1098 L156 1098 L156 1458 L965 1458 L965 1327 Z" /><glyph glyph-name="eight" unicode="8" d="M965 401 Q965 219 842 103.5 Q719 -12 535 -12 Q351 -12 227.5 103.5 Q104 219 104 401 Q104 521 164 610 Q224 699 324 756 Q133 866 133 1079 Q133 1249 247 1359.5 Q361 1470 535 1470 Q709 1470 822.5 1359.5 Q936 1249 936 1079 Q936 864 748 756 Q847 699 906 610.5 Q965 522 965 401 ZM736 200.5 Q817 282 817 403 Q817 524 736 606 Q655 688 535 688 Q415 688 333.5 606 Q252 524 252 403 Q252 282 333.5 200.5 Q415 119 535 119 Q655 119 736 200.5 ZM788 1077 Q788 1192 717.5 1265.5 Q647 1339 535 1339 Q423 1339 352 1265 Q281 1191 281 1077 Q281 962 351.5 889.5 Q422 817 535 817 Q647 817 717.5 889 Q788 961 788 1077 Z" /><glyph glyph-name="nine" unicode="9" d="M936 1051 Q936 909 844 723 L485 0 L332 0 L659 655 Q592 625 504 625 Q335 625 231 740.5 Q127 856 127 1038 Q127 1227 237 1348.5 Q347 1470 530 1470 Q715 1470 825.5 1355.5 Q936 1241 936 1051 ZM788 1044 Q788 1178 717.5 1258.5 Q647 1339 530 1339 Q413 1339 343.5 1258.5 Q274 1178 274 1044 Q274 917 341.5 833.5 Q409 750 530 750 Q647 750 717.5 829.5 Q788 909 788 1044 Z" /><glyph glyph-name="colon" unicode=":" d="M428 616 L236 616 L236 809 L428 809 L428 616 ZM428 0 L236 0 L236 193 L428 193 L428 0 Z" /><glyph glyph-name="semicolon" unicode=";" d="M420 -133 L240 -295 L240 180 L420 180 L420 -133 ZM428 616 L236 616 L236 809 L428 809 L428 616 Z" /><glyph glyph-name="less" unicode="&lt;" d="M872 139 L195 483 L195 618 L872 963 L872 805 L360 551 L872 297 L872 139 Z" /><glyph glyph-name="equal" unicode="=" d="M963 655 L106 655 L106 793 L963 793 L963 655 ZM963 309 L106 309 L106 444 L963 444 L963 309 Z" /><glyph glyph-name="greater" unicode="&gt;" d="M872 483 L195 139 L195 297 L707 551 L195 805 L195 963 L872 618 L872 483 Z" /><glyph glyph-name="question" unicode="?" d="M924 1098 Q924 1032 900.5 974.5 Q877 917 831 850 L664 608 Q627 553 627 489 L627 410 L479 410 L479 492 Q479 550 494 593 Q509 636 543 684 L709 924 Q743 974 759.5 1012 Q776 1050 776 1098 Q776 1201 709.5 1270 Q643 1339 541 1339 Q435 1339 369 1267.5 Q303 1196 303 1096 L156 1096 Q156 1254 266 1362 Q376 1470 541 1470 Q704 1470 814 1365 Q924 1260 924 1098 ZM641 0 L465 0 L465 172 L641 172 L641 0 Z" /><glyph glyph-name="at" unicode="@" d="M1313 -2 L1171 0 L1171 113 Q1119 47 1054 16.5 Q989 -14 897 -14 Q811 -14 738 18.5 Q665 51 618 111 Q567 174 547.5 258.5 Q528 343 528 487 Q528 625 547 712.5 Q566 800 612 862 Q656 922 731 955.5 Q806 989 895 989 Q1064 989 1169 860 L1169 1020 Q1169 1103 1151.5 1155.5 Q1134 1208 1090 1253 Q1008 1335 862 1335 L596 1335 Q455 1335 373 1253 Q327 1207 309 1156 Q291 1105 291 1020 L291 330 Q291 233 314.5 183.5 Q338 134 408 82 L307 -18 Q213 51 180 121.5 Q147 192 147 328 L147 1016 Q147 1228 262 1346 Q373 1460 578 1460 L881 1460 Q1082 1460 1196 1346 Q1313 1229 1313 1016 L1313 -2 ZM1169 487 Q1169 551 1164 600 Q1159 649 1143.5 700.5 Q1128 752 1102 785.5 Q1076 819 1030 840.5 Q984 862 922 862 Q860 862 814 840.5 Q768 819 741.5 785.5 Q715 752 699.5 700.5 Q684 649 679 599.5 Q674 550 674 487 Q674 424 679 374.5 Q684 325 699.5 274 Q715 223 741.5 189.5 Q768 156 814 134.5 Q860 113 922 113 Q984 113 1030 134.5 Q1076 156 1102 189.5 Q1128 223 1143.5 274 Q1159 325 1164 374.5 Q1169 424 1169 487 Z" /><glyph glyph-name="A" unicode="a" d="M1227 0 L1061 0 L944 330 L307 330 L190 0 L25 0 L561 1458 L692 1458 L1227 0 ZM899 465 L629 1235 L354 465 L899 465 Z" /><glyph glyph-name="B" unicode="b" d="M1212 403 Q1212 209 1094 104.5 Q976 0 778 0 L211 0 L211 1458 L760 1458 Q953 1458 1071.5 1353.5 Q1190 1249 1190 1069 Q1190 956 1130 870.5 Q1070 785 975 750 Q1083 710 1147.5 620 Q1212 530 1212 403 ZM978 212 Q1057 285 1057 408 Q1057 531 978 602.5 Q899 674 764 674 L367 674 L367 139 L764 139 Q899 139 978 212 ZM955 877.5 Q1034 942 1034 1067 Q1034 1192 955 1255.5 Q876 1319 748 1319 L367 1319 L367 813 L748 813 Q876 813 955 877.5 Z" /><glyph glyph-name="C" unicode="c" d="M1171 422 Q1136 219 999.5 103.5 Q863 -12 666 -12 Q444 -12 293 139 Q264 168 242.5 200 Q221 232 206 260 Q191 288 181.5 333 Q172 378 167 409 Q162 440 159.5 502.5 Q157 565 156.5 604.5 Q156 644 156 729 Q156 814 156.5 853.5 Q157 893 159.5 955.5 Q162 1018 167 1049 Q172 1080 181.5 1125 Q191 1170 206 1198 Q221 1226 242.5 1258 Q264 1290 293 1319 Q444 1470 666 1470 Q864 1470 999.5 1355 Q1135 1240 1171 1036 L1012 1036 Q982 1172 891 1251.5 Q800 1331 666 1331 Q593 1331 527 1304.5 Q461 1278 414 1229 Q348 1161 329.5 1065 Q311 969 311 729 Q311 489 329.5 393 Q348 297 414 229 Q461 180 527 153.5 Q593 127 666 127 Q801 127 893.5 207 Q986 287 1016 422 L1171 422 Z" /><glyph glyph-name="D" unicode="d" d="M1223 774 Q1223 755 1223 745 Q1223 735 1223 716 Q1223 649 1222.5 612.5 Q1222 576 1218.5 511.5 Q1215 447 1205.5 403.5 Q1196 360 1181 307.5 Q1166 255 1140 212.5 Q1114 170 1079 135 Q944 0 711 0 L211 0 L211 1458 L711 1458 Q944 1458 1079 1323 Q1114 1288 1140 1247.5 Q1166 1207 1181 1157.5 Q1196 1108 1205.5 1069 Q1215 1030 1218.5 968.5 Q1222 907 1222.5 874 Q1223 841 1223 774 ZM1067 745 Q1067 816 1067 837 Q1067 858 1064.5 919.5 Q1062 981 1056.5 1009 Q1051 1037 1040.5 1081.5 Q1030 1126 1012.5 1156.5 Q995 1187 971 1212 Q867 1319 684 1319 L367 1319 L367 139 L684 139 Q867 139 971 246 Q1005 282 1026 334.5 Q1047 387 1055.5 462 Q1064 537 1065.5 586.5 Q1067 636 1067 725 Q1067 738 1067 745 Z" /><glyph glyph-name="E" unicode="e" d="M1116 0 L211 0 L211 1458 L1116 1458 L1116 1319 L367 1319 L367 805 L1006 805 L1006 666 L367 666 L367 139 L1116 139 L1116 0 Z" /><glyph glyph-name="F" unicode="f" d="M1116 1319 L367 1319 L367 782 L1006 782 L1006 643 L367 643 L367 0 L211 0 L211 1458 L1116 1458 L1116 1319 Z" /><glyph glyph-name="G" unicode="g" d="M1180 532 Q1180 405 1151 316 Q1122 227 1055 156 Q901 -12 666 -12 Q444 -12 293 139 Q264 168 242.5 200 Q221 232 206 260 Q191 288 181.5 333 Q172 378 167 409 Q162 440 159.5 502.5 Q157 565 156.5 604.5 Q156 644 156 729 Q156 814 156.5 853.5 Q157 893 159.5 955.5 Q162 1018 167 1049 Q172 1080 181.5 1125 Q191 1170 206 1198 Q221 1226 242.5 1258 Q264 1290 293 1319 Q444 1470 666 1470 Q871 1470 1007 1350 Q1143 1230 1176 1034 L1020 1034 Q989 1173 895.5 1252 Q802 1331 666 1331 Q594 1331 527.5 1303.5 Q461 1276 414 1227 Q347 1159 329 1063.5 Q311 968 311 729 Q311 489 329.5 393 Q348 297 414 229 Q461 180 527 153.5 Q593 127 666 127 Q747 127 819.5 159 Q892 191 942 252 Q1024 352 1024 516 L1024 627 L666 627 L666 764 L1180 764 L1180 532 Z" /><glyph glyph-name="H" unicode="h" d="M1214 0 L1059 0 L1059 666 L367 666 L367 0 L211 0 L211 1458 L367 1458 L367 805 L1059 805 L1059 1458 L1214 1458 L1214 0 Z" /><glyph glyph-name="I" unicode="i" d="M367 0 L211 0 L211 1458 L367 1458 L367 0 Z" /><glyph glyph-name="J" unicode="j" d="M836 442 Q836 234 709.5 111 Q583 -12 381 -12 Q178 -12 47 119 L152 223 Q200 175 249 151 Q298 127 381 127 Q524 127 602 214.5 Q680 302 680 463 L680 1458 L836 1458 L836 442 Z" /><glyph glyph-name="K" unicode="k" d="M1303 0 L1118 0 L674 776 L367 408 L367 0 L211 0 L211 1458 L367 1458 L367 621 L1047 1458 L1237 1458 L778 895 L1303 0 Z" /><glyph glyph-name="L" unicode="l" d="M1112 0 L211 0 L211 1458 L367 1458 L367 139 L1112 139 L1112 0 Z" /><glyph glyph-name="M" unicode="m" d="M1460 0 L1305 0 L1305 1108 L905 229 L772 229 L367 1108 L367 0 L211 0 L211 1458 L367 1458 L842 424 L1305 1458 L1460 1458 L1460 0 Z" /><glyph glyph-name="N" unicode="n" d="M1288 0 L1141 0 L367 1169 L367 0 L211 0 L211 1458 L358 1458 L1133 293 L1133 1458 L1288 1458 L1288 0 Z" /><glyph glyph-name="O" unicode="o" d="M1175.5 872.5 Q1176 826 1176 729 Q1176 632 1175.5 585.5 Q1175 539 1171 471 Q1167 403 1158.5 367.5 Q1150 332 1134.5 286.5 Q1119 241 1095.5 207 Q1072 173 1038 139 Q887 -12 666 -12 Q444 -12 293 139 Q264 168 242.5 200 Q221 232 206 260 Q191 288 181.5 333 Q172 378 167 409 Q162 440 159.5 502.5 Q157 565 156.5 604.5 Q156 644 156 729 Q156 814 156.5 853.5 Q157 893 159.5 955.5 Q162 1018 167 1049 Q172 1080 181.5 1125 Q191 1170 206 1198 Q221 1226 242.5 1258 Q264 1290 293 1319 Q444 1470 666 1470 Q887 1470 1038 1319 Q1072 1285 1095.5 1251 Q1119 1217 1134.5 1171.5 Q1150 1126 1158.5 1090.5 Q1167 1055 1171 987 Q1175 919 1175.5 872.5 ZM1002 394 Q1020 489 1020 729 Q1020 969 1002 1064 Q984 1159 918 1227 Q871 1276 804.5 1303.5 Q738 1331 666 1331 Q594 1331 527.5 1303.5 Q461 1276 414 1227 Q347 1159 329 1063.5 Q311 968 311 729 Q311 490 329 394.5 Q347 299 414 231 Q461 182 527.5 154.5 Q594 127 666 127 Q738 127 804.5 154.5 Q871 182 918 231 Q984 299 1002 394 Z" /><glyph glyph-name="P" unicode="p" d="M1079.5 1341.5 Q1204 1225 1204 1030 Q1204 835 1079.5 717.5 Q955 600 754 600 L367 600 L367 0 L211 0 L211 1458 L754 1458 Q955 1458 1079.5 1341.5 ZM964.5 814 Q1049 889 1049 1030 Q1049 1171 964.5 1245 Q880 1319 739 1319 L367 1319 L367 739 L739 739 Q880 739 964.5 814 Z" /><glyph glyph-name="Q" unicode="q" d="M1235 23 L1141 -72 L979 90 Q847 -12 666 -12 Q444 -12 293 139 Q264 168 242.5 200 Q221 232 206 260 Q191 288 181.5 333 Q172 378 167 409 Q162 440 159.5 502.5 Q157 565 156.5 604.5 Q156 644 156 729 Q156 814 156.5 853.5 Q157 893 159.5 955.5 Q162 1018 167 1049 Q172 1080 181.5 1125 Q191 1170 206 1198 Q221 1226 242.5 1258 Q264 1290 293 1319 Q444 1470 666 1470 Q887 1470 1038 1319 Q1072 1285 1095.5 1251 Q1119 1217 1134.5 1171.5 Q1150 1126 1158.5 1090.5 Q1167 1055 1171 987 Q1175 919 1175.5 872.5 Q1176 826 1176 729 Q1176 486 1160 377 Q1144 268 1075 182 L1235 23 ZM1020 729 Q1020 969 1002 1064 Q984 1159 918 1227 Q871 1276 804.5 1303.5 Q738 1331 666 1331 Q594 1331 527.5 1303.5 Q461 1276 414 1227 Q347 1159 329 1063.5 Q311 968 311 729 Q311 490 329 394.5 Q347 299 414 231 Q461 182 527.5 154.5 Q594 127 666 127 Q780 127 872 197 L688 381 L782 475 L961 297 Q998 358 1009 448.5 Q1020 539 1020 729 Z" /><glyph glyph-name="R" unicode="r" d="M1231 0 L1049 0 L717 647 L367 647 L367 0 L211 0 L211 1458 L770 1458 Q963 1458 1082.5 1349 Q1202 1240 1202 1053 Q1202 897 1116 794.5 Q1030 692 885 662 L1231 0 ZM967.5 852.5 Q1047 921 1047 1051 Q1047 1181 967.5 1250 Q888 1319 756 1319 L367 1319 L367 784 L756 784 Q888 784 967.5 852.5 Z" /><glyph glyph-name="S" unicode="s" d="M1090 401 Q1090 210 952.5 99 Q815 -12 586 -12 Q422 -12 305.5 32.5 Q189 77 86 180 L193 287 Q282 198 373 162.5 Q464 127 590 127 Q750 127 842 198.5 Q934 270 934 397 Q934 519 864 580 Q829 610 792 623.5 Q755 637 674 649 L504 676 Q331 703 236 786 Q125 885 125 1059 Q125 1246 251 1358 Q377 1470 592 1470 Q731 1470 831.5 1433 Q932 1396 1026 1311 L926 1210 Q856 1274 777 1304.5 Q698 1335 586 1335 Q442 1335 360.5 1261.5 Q279 1188 279 1065 Q279 953 344 897 Q413 837 541 817 L700 793 Q800 778 860 754.5 Q920 731 967 690 Q1090 585 1090 401 Z" /><glyph glyph-name="T" unicode="t" d="M1061 1319 L639 1319 L639 0 L483 0 L483 1319 L61 1319 L61 1458 L1061 1458 L1061 1319 Z" /><glyph glyph-name="U" unicode="u" d="M1208 481 Q1208 264 1064 126 Q920 -12 698 -12 Q476 -12 333 126 Q190 264 190 481 L190 1458 L346 1458 L346 494 Q346 328 442 227.5 Q538 127 698 127 Q858 127 955.5 227.5 Q1053 328 1053 494 L1053 1458 L1208 1458 L1208 481 Z" /><glyph glyph-name="V" unicode="v" d="M1102 1458 L623 0 L496 0 L16 1458 L180 1458 L559 279 L938 1458 L1102 1458 Z" /><glyph glyph-name="W" unicode="w" d="M1716 1458 L1343 0 L1198 0 L874 1167 L551 0 L406 0 L33 1458 L199 1458 L483 283 L805 1458 L944 1458 L1266 283 L1550 1458 L1716 1458 Z" /><glyph glyph-name="X" unicode="x" d="M1098 0 L918 0 L563 612 L207 0 L31 0 L477 748 L59 1458 L240 1458 L563 883 L887 1458 L1067 1458 L647 748 L1098 0 Z" /><glyph glyph-name="Y" unicode="y" d="M1036 1458 L606 602 L606 0 L451 0 L451 602 L16 1458 L184 1458 L528 760 L868 1458 L1036 1458 Z" /><glyph glyph-name="Z" unicode="z" d="M1022 0 L117 0 L117 147 L846 1319 L145 1319 L145 1458 L1022 1458 L1022 1327 L287 139 L1022 139 L1022 0 Z" /><glyph glyph-name="bracketleft" unicode="[" d="M551 -152 L188 -152 L188 1610 L551 1610 L551 1479 L336 1479 L336 -20 L551 -20 L551 -152 Z" /><glyph glyph-name="backslash" unicode="\" d="M727 -152 L582 -152 L0 1604 L145 1604 L727 -152 Z" /><glyph glyph-name="bracketright" unicode="]" d="M453 -152 L90 -152 L90 -25 L311 -25 L311 1483 L90 1483 L90 1610 L453 1610 L453 -152 Z" /><glyph glyph-name="asciicircum" unicode="^" d="M952 846 L801 846 L551 1313 L299 846 L147 846 L483 1470 L618 1470 L952 846 Z" /><glyph glyph-name="underscore" unicode="_" d="M1100 -338 L0 -338 L0 -233 L1100 -233 L1100 -338 Z" /><glyph glyph-name="grave" unicode="`" d="M612 1217 L477 1217 L256 1530 L432 1530 L612 1217 Z" /><glyph glyph-name="a" unicode="a" d="M903 0 L756 0 L756 96 Q695 35 631 11.5 Q567 -12 465 -12 Q360 -12 293.5 9.5 Q227 31 180 80 Q104 156 104 285 Q104 419 195.5 497 Q287 575 453 575 L756 575 L756 672 Q756 784 695 838.5 Q634 893 498 893 Q402 893 345 867 Q288 841 244 778 L143 870 Q208 955 290 987.5 Q372 1020 500 1020 Q701 1020 802 934.5 Q903 849 903 684 L903 0 ZM756 356 L756 465 L473 465 Q248 465 248 287 Q248 199 304 157 Q360 115 479 115 Q557 115 609.5 127.5 Q662 140 705 182 Q756 230 756 356 Z" /><glyph glyph-name="b" unicode="b" d="M862 932 Q985 809 985 504 Q985 199 862 76 Q822 36 756.5 12 Q691 -12 616 -12 Q526 -12 458 17 Q390 46 332 121 L332 0 L184 0 L184 1458 L332 1458 L332 891 Q390 964 457.5 992 Q525 1020 616 1020 Q691 1020 756.5 996 Q822 972 862 932 ZM833 387.5 Q838 438 838 504 Q838 570 833 620.5 Q828 671 812 724 Q796 777 769.5 811 Q743 845 696.5 867 Q650 889 586 889 Q522 889 475.5 867 Q429 845 402 810.5 Q375 776 358.5 723.5 Q342 671 337 620 Q332 569 332 504 Q332 439 337 388 Q342 337 358.5 284.5 Q375 232 402 197.5 Q429 163 475.5 141 Q522 119 586 119 Q650 119 696.5 141 Q743 163 769.5 197 Q796 231 812 284 Q828 337 833 387.5 Z" /><glyph glyph-name="c" unicode="c" d="M907 137 Q830 54 755.5 21 Q681 -12 575 -12 Q376 -12 252.5 121.5 Q129 255 129 504 Q129 753 252.5 886.5 Q376 1020 575 1020 Q681 1020 755.5 987 Q830 954 907 870 L807 776 Q750 839 698.5 864 Q647 889 575 889 Q422 889 342 774 Q307 724 291.5 661.5 Q276 599 276 504 Q276 409 291.5 346 Q307 283 342 233 Q421 119 575 119 Q647 119 698.5 144.5 Q750 170 807 233 L907 137 Z" /><glyph glyph-name="d" unicode="d" d="M932 0 L786 0 L786 121 Q728 46 659.5 17 Q591 -12 500 -12 Q425 -12 359.5 12 Q294 36 254 76 Q131 199 131 504 Q131 809 254 932 Q294 972 359.5 996 Q425 1020 500 1020 Q591 1020 658.5 992 Q726 964 784 891 L784 1458 L932 1458 L932 0 ZM779 387.5 Q784 438 784 504 Q784 570 779 620.5 Q774 671 758 724 Q742 777 715.5 811 Q689 845 642.5 867 Q596 889 532 889 Q468 889 421.5 867 Q375 845 348 811 Q321 777 305 724 Q289 671 284 620.5 Q279 570 279 504 Q279 438 284 387.5 Q289 337 305 284 Q321 231 348 197 Q375 163 421.5 141 Q468 119 532 119 Q596 119 642.5 141 Q689 163 715.5 197 Q742 231 758 284 Q774 337 779 387.5 Z" /><glyph glyph-name="e" unicode="e" d="M956 465 L276 465 Q276 298 352.5 207.5 Q429 117 573 117 Q659 117 717.5 143 Q776 169 838 231 L938 143 Q857 62 774.5 25 Q692 -12 569 -12 Q362 -12 245.5 116.5 Q129 245 129 504 Q129 747 239.5 883.5 Q350 1020 543 1020 Q737 1020 846.5 889 Q956 758 956 532 L956 465 ZM809 575 Q806 639 800.5 671 Q795 703 778 743 Q749 812 685.5 853.5 Q622 895 543 895 Q464 895 400 853.5 Q336 812 307 743 Q290 703 284.5 671 Q279 639 276 575 L809 575 Z" /><glyph glyph-name="f" unicode="f" d="M580 889 L365 889 L365 0 L217 0 L217 889 L88 889 L88 1001 L217 1001 L217 1192 Q217 1310 283 1386 Q349 1462 473 1462 L580 1462 L580 1335 L500 1335 Q365 1335 365 1188 L365 1001 L580 1001 L580 889 Z" /><glyph glyph-name="g" unicode="g" d="M928 -31 Q928 -222 815 -342.5 Q702 -463 508 -463 Q397 -463 322.5 -432.5 Q248 -402 166 -328 L262 -233 Q324 -288 373 -311 Q422 -334 504 -334 Q643 -334 711.5 -248.5 Q780 -163 780 -25 L780 133 Q722 59 654.5 30.5 Q587 2 498 2 Q424 2 359.5 26.5 Q295 51 254 92 Q131 215 131 512 Q131 809 254 932 Q294 972 359.5 996 Q425 1020 500 1020 Q591 1020 657.5 992 Q724 964 782 889 L782 1008 L928 1008 L928 -31 ZM775 400 Q780 449 780 512 Q780 575 775 624 Q770 673 754.5 725 Q739 777 712.5 811 Q686 845 639.5 867 Q593 889 530 889 Q467 889 420 867 Q373 845 346.5 811 Q320 777 304.5 725 Q289 673 284 624 Q279 575 279 512 Q279 449 284 400 Q289 351 304.5 299 Q320 247 346.5 213 Q373 179 420 157 Q467 135 530 135 Q593 135 639.5 157 Q686 179 712.5 213 Q739 247 754.5 299 Q770 351 775 400 Z" /><glyph glyph-name="h" unicode="h" d="M977 0 L829 0 L829 623 Q829 753 764.5 821 Q700 889 584 889 Q468 889 400 820 Q332 751 332 623 L332 0 L184 0 L184 1458 L332 1458 L332 897 Q440 1020 614 1020 Q783 1020 880 919 Q977 818 977 647 L977 0 Z" /><glyph glyph-name="i" unicode="i" d="M332 0 L184 0 L184 1008 L332 1008 L332 0 ZM342 1294 L176 1294 L176 1460 L342 1460 L342 1294 Z" /><glyph glyph-name="j" unicode="j" d="M332 -182 Q332 -304 267.5 -378.5 Q203 -453 76 -453 L-31 -453 L-31 -324 L49 -324 Q123 -324 153.5 -288 Q184 -252 184 -176 L184 1001 L332 1001 L332 -182 ZM342 1294 L176 1294 L176 1460 L342 1460 L342 1294 Z" /><glyph glyph-name="k" unicode="k" d="M1030 0 L848 0 L528 516 L332 291 L332 0 L184 0 L184 1458 L332 1458 L332 483 L786 1008 L971 1008 L629 623 L1030 0 Z" /><glyph glyph-name="l" unicode="l" d="M543 0 L436 0 Q309 0 244.5 73.5 Q180 147 180 268 L180 1458 L328 1458 L328 274 Q328 198 358.5 162.5 Q389 127 463 127 L543 127 L543 0 Z" /><glyph glyph-name="m" unicode="m" d="M1626 0 L1479 0 L1479 621 Q1479 752 1413 820.5 Q1347 889 1231 889 Q1118 889 1048.5 822 Q979 755 979 637 L979 0 L831 0 L831 621 Q831 752 765.5 820.5 Q700 889 584 889 Q467 889 399.5 819.5 Q332 750 332 621 L332 0 L184 0 L184 1008 L332 1008 L332 897 Q440 1020 616 1020 Q721 1020 801 977.5 Q881 935 926 852 Q1044 1020 1257 1020 Q1421 1020 1518 926 Q1626 821 1626 645 L1626 0 Z" /><glyph glyph-name="n" unicode="n" d="M977 0 L829 0 L829 621 Q829 752 763.5 820.5 Q698 889 582 889 Q466 889 399 820 Q332 751 332 621 L332 0 L184 0 L184 1008 L332 1008 L332 897 Q440 1020 614 1020 Q778 1020 872 926 Q977 824 977 645 L977 0 Z" /><glyph glyph-name="o" unicode="o" d="M954 504 Q954 371 928 272.5 Q902 174 831 102 Q717 -12 543 -12 Q368 -12 254 102 Q183 174 157 272.5 Q131 371 131 504 Q131 636 157 734.5 Q183 833 254 905 Q369 1020 543 1020 Q716 1020 831 905 Q902 833 928 734.5 Q954 636 954 504 ZM792 319.5 Q807 396 807 504 Q807 612 792 688.5 Q777 765 727 815 Q653 889 543 889 Q434 889 360 815 Q310 765 294.5 688 Q279 611 279 504 Q279 397 294.5 320 Q310 243 360 193 Q434 119 543 119 Q653 119 727 193 Q777 243 792 319.5 Z" /><glyph glyph-name="p" unicode="p" d="M862 932 Q985 809 985 504 Q985 199 862 76 Q822 36 756.5 12 Q691 -12 616 -12 Q526 -12 458 16.5 Q390 45 332 119 L332 -451 L184 -451 L184 1008 L332 1008 L332 889 Q390 964 457.5 992 Q525 1020 616 1020 Q691 1020 756.5 996 Q822 972 862 932 ZM833 387.5 Q838 438 838 504 Q838 570 833 620.5 Q828 671 812 724 Q796 777 769.5 811 Q743 845 696.5 867 Q650 889 586 889 Q522 889 475.5 867 Q429 845 402 810.5 Q375 776 358.5 723.5 Q342 671 337 620 Q332 569 332 504 Q332 439 337 388 Q342 337 358.5 284.5 Q375 232 402 197.5 Q429 163 475.5 141 Q522 119 586 119 Q650 119 696.5 141 Q743 163 769.5 197 Q796 231 812 284 Q828 337 833 387.5 Z" /><glyph glyph-name="q" unicode="q" d="M932 -451 L784 -451 L784 119 Q726 45 658 16.5 Q590 -12 500 -12 Q425 -12 359.5 12 Q294 36 254 76 Q131 199 131 504 Q131 809 254 932 Q294 972 359.5 996 Q425 1020 500 1020 Q591 1020 659.5 992 Q728 964 786 889 L786 1008 L932 1008 L932 -451 ZM779 387.5 Q784 438 784 504 Q784 570 779 620.5 Q774 671 758 724 Q742 777 715.5 811 Q689 845 642.5 867 Q596 889 532 889 Q468 889 421.5 867 Q375 845 348 811 Q321 777 305 724 Q289 671 284 620.5 Q279 570 279 504 Q279 438 284 387.5 Q289 337 305 284 Q321 231 348 197 Q375 163 421.5 141 Q468 119 532 119 Q596 119 642.5 141 Q689 163 715.5 197 Q742 231 758 284 Q774 337 779 387.5 Z" /><glyph glyph-name="r" unicode="r" d="M856 926 L748 815 Q706 857 668.5 873 Q631 889 573 889 Q465 889 398.5 812.5 Q332 736 332 618 L332 0 L184 0 L184 1008 L332 1008 L332 885 Q373 948 449.5 984 Q526 1020 614 1020 Q690 1020 747 999 Q804 978 856 926 Z" /><glyph glyph-name="s" unicode="s" d="M911 295 Q911 151 799.5 69.5 Q688 -12 502 -12 Q370 -12 269.5 22 Q169 56 88 133 L186 231 Q296 115 500 115 Q627 115 697.5 160 Q768 205 768 293 Q768 426 600 440 L434 455 Q133 479 133 725 Q133 861 236.5 940.5 Q340 1020 504 1020 Q733 1020 866 911 L770 815 Q665 895 502 895 Q393 895 334.5 851 Q276 807 276 729 Q276 663 318 626 Q360 589 453 582 L614 567 Q757 554 834 491 Q911 428 911 295 Z" /><glyph glyph-name="t" unicode="t" d="M571 0 L467 0 Q343 0 276 76 Q209 152 209 270 L209 889 L82 889 L82 1001 L209 1001 L209 1317 L356 1317 L356 1001 L571 1001 L571 889 L356 889 L356 274 Q356 203 390.5 165 Q425 127 494 127 L571 127 L571 0 Z" /><glyph glyph-name="u" unicode="u" d="M967 0 L821 0 L821 113 Q711 -12 537 -12 Q370 -12 276 82 Q174 181 174 365 L174 1008 L322 1008 L322 387 Q322 256 386.5 187.5 Q451 119 567 119 Q684 119 751.5 188.5 Q819 258 819 387 L819 1008 L967 1008 L967 0 Z" /><glyph glyph-name="v" unicode="v" d="M893 1008 L522 0 L391 0 L23 1008 L182 1008 L457 199 L733 1008 L893 1008 Z" /><glyph glyph-name="w" unicode="w" d="M1460 1008 L1143 0 L1006 0 L741 782 L479 0 L342 0 L23 1008 L182 1008 L414 199 L678 1008 L805 1008 L1071 199 L1300 1008 L1460 1008 Z" /><glyph glyph-name="x" unicode="x" d="M911 0 L733 0 L492 391 L246 0 L68 0 L410 514 L82 1008 L260 1008 L492 635 L719 1008 L897 1008 L569 514 L911 0 Z" /><glyph glyph-name="y" unicode="y" d="M893 1008 L434 -244 Q406 -321 362 -362 Q289 -432 166 -432 L102 -432 L102 -301 L147 -301 Q221 -301 254 -274.5 Q287 -248 313 -176 L385 20 L23 1008 L182 1008 L459 199 L733 1008 L893 1008 Z" /><glyph glyph-name="z" unicode="z" d="M834 0 L102 0 L102 127 L664 877 L133 877 L133 1008 L834 1008 L834 883 L270 131 L834 131 L834 0 Z" /><glyph glyph-name="bar" unicode="|" d="M408 -152 L260 -152 L260 1610 L408 1610 L408 -152 Z" /><glyph glyph-name="asciitilde" unicode="~" d="M1004 569 Q920 485 865.5 457.5 Q811 430 739 430 Q705 430 666 440 Q627 450 599 461 Q571 472 522 494 Q419 543 362 543 Q316 543 281.5 525.5 Q247 508 190 451 L100 543 Q184 627 238.5 654.5 Q293 682 365 682 Q399 682 438 672 Q477 662 503.5 651.5 Q530 641 580 618 Q683 569 739 569 Q784 569 819 587 Q854 605 911 662 L1004 569 Z" /><glyph glyph-name="copyright" unicode="©" d="M1583.5 1017.5 Q1642 880 1642 729 Q1642 578 1583.5 440.5 Q1525 303 1426 204 Q1327 105 1189.5 46.5 Q1052 -12 901 -12 Q750 -12 612.5 46.5 Q475 105 376 204 Q277 303 218.5 440.5 Q160 578 160 729 Q160 880 218.5 1017.5 Q277 1155 376 1254 Q475 1353 612.5 1411.5 Q750 1470 901 1470 Q1052 1470 1189.5 1411.5 Q1327 1353 1426 1254 Q1525 1155 1583.5 1017.5 ZM1440.5 413.5 Q1524 559 1524 729 Q1524 899 1440.5 1044.5 Q1357 1190 1213.5 1275 Q1070 1360 901 1360 Q774 1360 659 1309.5 Q544 1259 461.5 1174.5 Q379 1090 330 973.5 Q281 857 281 729 Q281 601 330 484.5 Q379 368 461.5 283.5 Q544 199 659 148.5 Q774 98 901 98 Q1070 98 1213.5 183 Q1357 268 1440.5 413.5 ZM1180 420 Q1118 364 1056.5 338.5 Q995 313 911 313 Q737 313 642 428 Q547 543 547 729 Q547 915 642.5 1031 Q738 1147 911 1147 Q994 1147 1054 1121.5 Q1114 1096 1180 1038 L1106 965 Q1055 1009 1011.5 1026.5 Q968 1044 911 1044 Q822 1044 764.5 1000 Q707 956 684.5 888 Q662 820 662 729 Q662 588 721 502 Q780 416 911 416 Q969 416 1012.5 433 Q1056 450 1106 494 L1180 420 Z" /><glyph glyph-name="registered" unicode="®" d="M1583.5 1017.5 Q1642 880 1642 729 Q1642 578 1583.5 440.5 Q1525 303 1426 204 Q1327 105 1189.5 46.5 Q1052 -12 901 -12 Q750 -12 612.5 46.5 Q475 105 376 204 Q277 303 218.5 440.5 Q160 578 160 729 Q160 880 218.5 1017.5 Q277 1155 376 1254 Q475 1353 612.5 1411.5 Q750 1470 901 1470 Q1052 1470 1189.5 1411.5 Q1327 1353 1426 1254 Q1525 1155 1583.5 1017.5 ZM1442 412 Q1526 558 1526 729 Q1526 900 1442 1046 Q1358 1192 1214 1277 Q1070 1362 901 1362 Q774 1362 659 1311.5 Q544 1261 460.5 1176 Q377 1091 328 974 Q279 857 279 729 Q279 601 328 484 Q377 367 460.5 282 Q544 197 659 146.5 Q774 96 901 96 Q1070 96 1214 181 Q1358 266 1442 412 ZM1212 324 L1081 324 L895 655 L772 655 L772 324 L659 324 L659 1137 L936 1137 Q1042 1137 1117 1066 Q1192 995 1192 893 Q1192 808 1144.5 751.5 Q1097 695 1018 670 L1212 324 ZM1034 791.5 Q1077 831 1077 893 Q1077 955 1034 995.5 Q991 1036 924 1036 L772 1036 L772 752 L924 752 Q991 752 1034 791.5 Z" /><glyph glyph-name="divide" unicode="÷" d="M965 483 L104 483 L104 621 L965 621 L965 483 ZM623 100 L446 100 L446 276 L623 276 L623 100 ZM623 827 L446 827 L446 1004 L623 1004 L623 827 Z" /><glyph glyph-name="trademark" unicode="&#x2122;" d="M1599 584 L1483 584 L1483 1214 L1274 801 L1159 801 L950 1214 L950 584 L831 584 L831 1458 L950 1458 L1217 928 L1483 1458 L1599 1458 L1599 584 ZM678 1350 L434 1350 L434 584 L315 584 L315 1350 L74 1350 L74 1458 L678 1458 L678 1350 Z" /></font>
</defs>
</svg>
